# xmcd
#
# Track frame offsets:
#	150
#	16655
#	35848
#	53940
#	70120
#	87092
#	103836
#	121321
#	138267
#	156035
#	175695
#	192267
#	208771
#	227099
#	244290
#	259876
#	274040
#	291534
#	306027
#	323045
#	339338
#
# Disc length: 4708 seconds
#
# Revision: 0
# Processed by: cddbd v1.5.2PL0 Copyright (c) Steve Scherf et al.
# Submitted via: audiograbber 1.83.01
#
DISCID=30126215
DTITLE=Grupo Bryndis - Lo Mejor
DYEAR=1900
DGENRE=
TTITLE0=Donde estes Con Quien Estes
TTITLE1=Quien Eres Tu
TTITLE2=Como Olvidar
TTITLE3=Tu Traicion
TTITLE4=Mi Verdad Amor
TTITLE5=Olvidemos Nuestro Orguloo
TTITLE6=Pagando Mi Pasado
TTITLE7=Vas A Sufrir
TTITLE8=Por Estar Pensando En Ti
TTITLE9=La Ultima Cancion
TTITLE10=Aunque Tenga Que Llorar
TTITLE11=Hojas Secas
TTITLE12=La Chica Del Este "Morango Do Nordeste"
TTITLE13=Amor Prohibido
TTITLE14=Un Triste Corazon
TTITLE15=Quiza Si Quiza No
TTITLE16=Un Brindis Por Ti
TTITLE17=Siempre Te Amare
TTITLE18=Y Vas A Sufrir
TTITLE19=Te Juro Que Te Amo
TTITLE20=Te Esperare
EXTD=
EXTT0=
EXTT1=
EXTT2=
EXTT3=
EXTT4=
EXTT5=
EXTT6=
EXTT7=
EXTT8=
EXTT9=
EXTT10=
EXTT11=
EXTT12=
EXTT13=
EXTT14=
EXTT15=
EXTT16=
EXTT17=
EXTT18=
EXTT19=
EXTT20=
PLAYORDER=
